<svg xmlns="http://www.w3.org/2000/svg" viewBox="0 0 40 40"><defs><style>.\35 def31ab-cac6-4bc1-8b44-95eeea9b059e{fill:#cb9d81;}</style></defs><title>Asset 1</title><g id="3f656de3-9202-4bca-8a53-5ffb06f1ed57" data-name="Layer 2"><g id="3f172a2e-c53f-4906-ba59-0cf2341f02a0" data-name="Layer 1"><path class="5def31ab-cac6-4bc1-8b44-95eeea9b059e" d="M31.94,19.37l5.72-5.71a8,8,0,1,0-11.32,0ZM27.76,3.76A6,6,0,0,1,38,8a5.93,5.93,0,0,1-1.76,4.24L32,16.53l-4.2-4.28h0a6,6,0,0,1,0-8.48Z"/><path class="5def31ab-cac6-4bc1-8b44-95eeea9b059e" d="M32,11a3,3,0,1,0-3-3A3,3,0,0,0,32,11Zm0-4a1,1,0,1,1-1,1A1,1,0,0,1,32,7Z"/><path class="5def31ab-cac6-4bc1-8b44-95eeea9b059e" d="M38,28H36.41l-9-9H12V35H38v3H9V33H2V30H9V9h3v7H23V14H14V9h7V7H0V40H40V17H38ZM7,9V28H2V9ZM2,38V35H7v3Zm12-5V21H26.59l9,9H38v3Z"/></g></g></svg>